<svg style="display: none;">
	<defs>
		<g id="svg-water">
			<linearGradient id="a" gradientUnits="userSpaceOnUse" x1="960" y1="371.872" x2="960" y2="738.937"><stop offset="0" stop-color="#2E587A"/><stop offset="1" stop-color="#1E3E59"/></linearGradient><path fill="url(#a)" d="M0 371.872h1920v367.065h-1920z"/><path opacity=".7" fill="#2E587A" d="M0 247.738v124.182h1124.36v-75.79h1.226l-.94-7.812-9.612-10.715-7.316-4.248h-3.539v-2.504h-3.529v-19.996h-1.176v19.996h-4.704v2.504h-1.974v-2.504h-9.405v2.504h-1.974v-2.504h-9.405v2.504h-2.29l-1.315 16.467h3.844l-.123 8.066h-8.113v-9.992h-.907v-9.354h.907v-18.826h-.907v-9.365h1.096v-18.816h-1.097v-4.67l-8.48-10.125h-3.023v-1.672h-6.382v-13.109h-6.717v-15.469h-1.345v15.469h-14.78v13.109h-4.702v4.248h-3.266v12.219h-1.458v18.816h1.458v9.365h-1.457v18.826h1.457v9.354h-1.457v.902h-1.79v-9.557h-.558v9.557h-2.802v-4.418h1.028v-1.408h-3.266v-5.031h-1.679v-9.521h-1.864v-9.703h-.656v9.703h-2.424v9.521h-1.328v-4.756h.594v-1.684h-.594v-5.971h.594v-1.674h-.594v-5.982h.594v-1.674h-.594v-5.971h.594v-1.686h-.594v-5.971h.594v-1.686h-.594v-5.971h.594v-1.674h-.594v-5.971h.594v-1.686h-.594v-5.971h.594v-1.684h-.594v-5.971h.594v-1.686h-.594v-5.971h.594v-1.674h-.594v-5.971h.594v-1.686l-6.188-11.508h-32.466l-.686 11.508v1.686h.686v5.971h-.686v1.674h.686v5.971h-.686v1.686h.686v5.971h-.686v1.684h.686v5.971h-.686v1.686h.686v5.971h-.686v1.674h.686v5.971h-.686v1.686h.686v5.971h-.686v1.686h.686v5.971h-.686v1.674h.686v5.982h-.686v1.674h.686v5.971h-.686v1.684h.686v5.971h-.686v.543h-1.017v-6.561h-2.802v-17.07h-.558v17.07h-2.214v-35.393h1.024v-2.623l-9.98-5.164h-8.699v-21.488h-.839v21.488h-30.719v-12.748h-.561v12.748h-2.176v-5.43h-9.052v-5.031h-3.359v-20.789h-.558v20.789h-1.427v5.031h-1.554v5.43h-2.624l-1.38 5.164v2.623h1.38v12.436h-2.532v6.477h-3.919v-35.861h-.828v-5.32h.828v-37.799h-.828v-5.32h.828v-37.799h-.828v-6.332h1.244v-2.623l-16.355-12.689h-38.062l-9.778 12.689v2.623h1.384v153.314h-3.643v12.314h-2.797v4.033h-3.293v-.566h1.054v-2.238h-1.054v-3.553h1.054v-2.238h-1.054v-5.418h1.054v-2.238h-1.054v-5.416h1.054v-2.24h-1.054v-5.404h1.054v-2.24h-1.054v-7.281h1.054v-2.24h-1.054v-7.283h1.054v-2.238h-1.054v-7.283h1.054v-2.238h-1.054v-7.274h1.054v-2.238h-1.054v-9.148h1.054v-2.24h-1.054v-.107l-9.331-10.822-7.463-3.732h-9.216v-30.732h-1.679v30.732h-4.427v-19.055h-1.679v19.055h-18.07v3.732l-.088 10.93h-1.837v2.24h1.819l-.072 9.148h-1.747v2.238h1.731l-.061 7.271h-1.671v2.238h1.653l-.057 7.283h-1.597v2.238h1.579l-.027 3.443h-3.754v-10.389h-1.679v10.389h-1.285v5.057h-2.112v4.479h2.112v5.031h-2.112v4.479h2.112v3.178h-2.112v4.477h2.112v2.793h-3.73v-110.519h1.306v-2.564l-18.094-12.352h-.061v-12.398h-7.273v-10.076h-7.557v10.076h-1.96v-10.076h-7.553v10.076h-1.962v-10.076h-7.552v10.076h-1.962v-10.076h-7.555v10.076h-1.958v-10.076h-7.557v10.076h-3.356v12.398h-.41v11.678h-1.55v21.006h1.55v7.186h-1.55v20.994h1.55v12.424h-5.606v13.193h-7.079v-162.524h.633v-4.129l-5.856-8.859h-8.542v-20.79h-1.119v20.789h-39.215l-.89 8.859v4.129h.89v174.188h-7.234v-.422h-.602v-2.238h.602v-1.674h-.602v-2.238h.602v-1.686h-.602v-2.238h.602v-1.674h-.602v-2.252h.602v-1.672h-.602v-2.24h.602v-1.686h-.602v-2.238h.602v-1.674h-.602v-2.238h.602v-1.686h-.602v-2.238h.602v-1.686h-.602v-2.24h.602v-1.672h-.602v-2.24h.602v-1.686h-.602v-2.238h.602v-1.674h-.602v-2.238h.602v-1.686h-.602v-2.432h.602v-1.674h-.602v-2.238h.602v-1.686h-.602v-2.42h.602v-1.686h-.602v-8.582l-27.569-65.992h-4.01v-5.211h-10.633v-19.885h-1.679v19.887h-2.237v-4.479h-8.396v-31.923h-1.677v31.924h-18.469v9.689h-12.23l-11.039 25.111v5.514h-1.078v26.314h1.078v11.195h-1.078v26.326h1.078v7.465h-1.078v24.617h-9.155v-32.744h-5.997v-200.934l-49.373-13.879-18.161 13.879v245.199h-10.114v24.293h-8.41v-21.164h6.432v-13.807h-6.432v-5.598h9.788v-2.238h-9.788v-6.537h6.432v-13.807h-6.432v-5.598h9.788v-2.24h-9.788v-6.535h6.432v-13.82h-6.432v-5.598h9.788v-2.238h-9.788v-24.076h4.421v-3.166h-5.04l-40.588-12.688h-5.481v-11.641h2.106v-3.432h-10.275v-11.062h5.005v-3.43h-7.711l-27.589-13.447-9.155 4.672v-26.255h-1.494v27.014l-15.748 8.018h-6.799v3.43h4.211v11.062h-9.216v3.432h1.578v11.641l-23.214 3.346v9.342h-6.407v-20.537h-1.493v20.537h-18.943v3.166h3.953v18.67h-8.519v2.24h8.519v5.598h-5.161v13.807h5.161v6.537h-8.519v2.238h8.519v5.598h-5.161v13.82h5.161v6.523h-8.519v2.24h8.519v5.598h-5.161v13.818h5.161v6.525h-9.753v-35.079h1.979v-5.611l-18.77-11.855h-56.716v23.064h-1.744v13.434h1.744v3.551h-1.744v13.434h1.744v3.553h-1.744v13.434h1.744v.264h-8.085v-8.475h-7.935v-1.311h1.588v-7.465h-1.588v-9.521h1.588v-7.463h-1.588v-13.254h1.588v-7.463h-1.588v-12.881h1.588v-7.463h-1.588v-13.254h1.588v-7.465h-1.588v-13.253h1.588v-7.465h-1.588v-13.254h1.588v-7.463h-1.588v-13.254h1.588v-7.475h-1.588v-5.971h5.317v-2.986l-18.787-17.814h-33.82v-21.006h-1.492v21.006h-10.173v189.197h-10.737v-12.109h2.604v-3.768h-11.256v-22.15l-18.576-14.217-10.732 5.441v-7.344h-1.156v7.922l-16.17 8.198zm960.275-65.449h31.203v-3.07h-31.203v3.07zm1.133-4.178h15.806v-5.104h-11.984v-13.459h-1.025v13.459h-2.797v5.104zm-772.904 31.094h5.973v-9.328h-5.973v9.328zm-7.645 0h5.968v-9.328h-5.968v9.328zm-7.652 0h5.968v-9.328h-5.968v9.328zm-7.652 0h5.973v-9.328h-5.973v9.328zm-7.647 0h5.973v-9.328h-2.213v-27.303h-1.492v27.303h-2.268v9.328zm-7.646 0h5.968v-9.328h-5.968v9.328z"/><linearGradient id="b" gradientUnits="userSpaceOnUse" x1="562.793" y1="491.573" x2="562.793" y2="371.872"><stop offset="0" stop-color="#08263C" stop-opacity="0"/><stop offset=".896" stop-color="#08263C" stop-opacity=".896"/><stop offset="1" stop-color="#08263C"/></linearGradient><path opacity=".3" fill="url(#b)" d="M16.171 414.478v2.55h1.155v-2.364l10.732 1.751 18.576-4.576v-7.128h11.256v-1.213h-2.604v-3.898h10.738v60.894h10.172v6.76h1.492v-6.76h33.82l18.787-5.735v-.96h-5.317v-1.921h1.588v-2.407h-1.588v-4.265h1.588v-2.402h-1.588v-4.266h1.588v-2.403h-1.588v-4.265h1.588v-2.402h-1.588v-4.266h1.588v-2.402h-1.588v-4.146h1.588v-2.402h-1.588v-4.266h1.588v-2.402h-1.588v-3.064h1.588v-2.402h-1.588v-.422h7.935v-2.728h8.085v.085h-1.744v4.323h1.744v1.144h-1.744v4.323h1.744v1.144h-1.744v4.323h1.744v7.424h56.716l18.77-3.816v-1.806h-1.979v-11.29h9.753v2.1h-5.161v4.448h5.161v1.802h-8.519v.72h8.519v2.101h-5.161v4.448h5.161v1.802h-8.519v.72h8.519v2.104h-5.161v4.443h5.161v1.802h-8.519v.721h8.519v6.009h-3.953v1.019h18.943v6.61h1.493v-6.61h6.407v3.008l23.214 1.076v3.746h-1.578v1.105h9.216v3.56h-4.211v1.104h6.799l15.748 2.58v8.693h1.494v-8.45l9.155 1.504 27.589-4.327h7.711v-1.104h-5.005v-3.56h10.276v-1.105h-2.106v-3.746h5.481l40.588-4.084h5.04v-1.019h-4.421v-7.749h9.788v-.721h-9.788v-1.801h6.432v-4.447h-6.432v-2.104h9.788v-.722h-9.788v-1.802h6.432v-4.443h-6.432v-2.104h9.788v-.721h-9.788v-1.803h6.432v-4.442h-6.432v-6.812h8.41v7.818h10.114v78.916l18.161 4.467 49.373-4.467v-64.67h5.997v-10.539h9.155v7.923h1.078v2.403h-1.078v8.473h1.078v3.604h-1.078v8.469h1.078v1.774l11.039 8.082h12.23v3.119h18.469v10.274h1.677v-10.274h8.396v-1.441h2.237v6.4h1.679v-6.4h10.633v-1.678h4.01l27.569-21.239v-2.763h.602v-.542h-.602v-.779h.602v-.542h-.602v-.72h.602v-.539h-.602v-.783h.602v-.542h-.602v-.721h.602v-.539h-.602v-.72h.602v-.543h-.602v-.721h.602v-.538h-.602v-.72h.602v-.544h-.602v-.72h.602v-.543h-.602v-.721h.602v-.538h-.602v-.72h.602v-.544h-.602v-.72h.602v-.539h-.602v-.725h.602v-.538h-.602v-.721h.602v-.543h-.602v-.72h.602v-.539h-.602v-.721h.602v-.136h7.234v56.062h-.89v1.33l.89 2.851h39.218v6.692h1.119v-6.692h8.542l5.856-2.851v-1.33h-.633v-52.308h7.079v4.247h5.606v3.998h-1.55v6.758h1.55v2.312h-1.55v6.761h1.55v3.757h.41v3.991h3.356v3.243h7.557v-3.243h1.958v3.243h7.555v-3.243h1.962v3.243h7.552v-3.243h1.962v3.243h7.553v-3.243h1.96v3.243h7.557v-3.243h7.273v-3.991h.061l18.094-3.974v-.825h-1.306v-35.571h3.73v.899h-2.112v1.441h2.112v1.022h-2.112v1.441h2.112v1.62h-2.112v1.439h2.112v1.628h1.285v3.344h1.679v-3.344h3.754l.027 1.108h-1.579v.721h1.597l.057 2.344h-1.653v.721h1.671l.061 2.34h-1.731v.721h1.747l.072 2.944h-1.819v.722h1.837l.088 3.518v1.201h18.07v6.132h1.679v-6.132h4.427v9.891h1.679v-9.891h9.216l7.463-1.201 9.331-3.483v-.034h1.054v-.722h-1.054v-2.944h1.054v-.721h-1.054v-2.34h1.054v-.721h-1.054v-2.344h1.054v-.721h-1.054v-2.344h1.054v-.721h-1.054v-2.345h1.054v-.72h-1.054v-1.74h1.054v-.721h-1.054v-1.744h1.054v-.72h-1.054v-1.743h1.054v-.721h-1.054v-1.144h1.054v-.72h-1.054v-.183h3.293v1.298h2.797v3.964h3.643v49.344h-1.384v.844l9.778 4.085h38.062l16.355-4.085v-.844h-1.244v-2.038h.828v-12.165h-.828v-1.713h.828v-12.165h-.828v-1.713h.828v-11.543h3.919v2.085h2.532v4.003h-1.38v.844l1.38 1.663h2.624v1.747h1.554v1.619h1.427v6.691h.558v-6.691h3.359v-1.619h9.052v-1.747h2.176v4.103h.561v-4.103h30.719v6.915h.839v-6.915h8.699l9.98-1.663v-.844h-1.024v-11.392h2.214v5.495h.558v-5.495h2.802v-2.11h1.017v.174h.686v1.922h-.686v.543h.686v1.921h-.686v.539h.686v1.925h-.686v.539h.686v1.922h-.686v.542h.686v1.922h-.686v.542h.686v1.922h-.686v.539h.686v1.922h-.686v.542h.686v1.922h-.686v.542h.686v1.922h-.686v.542h.686v1.922h-.686v.538h.686v1.922h-.686v.543l.686 3.704h32.465l6.188-3.704v-.543h-.594v-1.922h.594v-.538h-.594v-1.922h.594v-.542h-.594v-1.922h.594v-.542h-.594v-1.922h.594v-.542h-.594v-1.922h.594v-.539h-.594v-1.922h.594v-.542h-.594v-1.922h.594v-.542h-.594v-1.922h.594v-.539h-.594v-1.925h.594v-.539h-.594v-1.921h.594v-.543h-.594v-1.53h1.328v3.064h2.424v3.123h.656v-3.123h1.865v-3.064h1.678v-1.62h3.266v-.453h-1.027v-1.422h2.801v3.076h.559v-3.076h1.789v.29h1.457v3.012h-1.457v6.06h1.457v3.014h-1.458v6.056h1.458v3.933h3.266v1.367h4.703v4.219h14.779v4.979h1.346v-4.979h6.717v-4.219h6.381v-.538h3.023l8.48-3.259v-1.503h1.098v-6.056h-1.097v-3.014h.908v-6.06h-.908v-3.012h.908v-3.215h8.113l.123 2.596h-3.844l1.314 5.3h2.291v.807h9.404v-.807h1.975v.807h9.404v-.807h1.975v.807h4.703v6.436h1.176v-6.436h3.529v-.807h3.539l7.316-1.367 9.613-3.447.939-2.516h-1.225v-24.393h-1124.364v39.967l16.171 2.646zm944.105 19.414h31.203v-.988h-31.203v.988zm1.132 1.999h2.797v4.332h1.025v-4.332h11.984v-1.643h-15.807v1.643zm-772.903-8.647h5.973v-3.002h-5.973v3.002zm-7.646 0h5.968v-3.002h-5.968v3.002zm-7.652 0h5.968v-3.002h-5.968v3.002zm-7.652 0h5.973v-3.002h-5.973v3.002zm-7.646 0h2.268v8.787h1.492v-8.787h2.213v-3.002h-5.973v3.002zm-7.647 0h5.968v-3.002h-5.968v3.002z"/><path fill="#fff" d="M1467.318 501.009l-43.087 119.478h43.087zM1477.17 460.721v159.766h49.242zM1390.992 630.342c7.387 19.708 33.239 33.256 33.239 33.256h102.181c13.541-3.695 32.009-33.256 32.009-33.256h-167.429z"/><path fill="#567489" d="M710.87 453.896l-21.251 58.926h21.251zM715.727 434.026v78.796h24.287zM673.226 517.682c3.643 9.72 16.394 16.402 16.394 16.402h50.395c6.679-1.823 15.787-16.402 15.787-16.402h-82.576z"/><path fill="#1E3E59" d="M678.566 534.084l-9.328 6.231h92.619l-18.373-8.07z"/><path fill="#567489" d="M981.897 410.133l-7.522 20.858h7.522zM983.616 403.1v27.891h8.598zM968.572 432.711c1.291 3.441 5.803 5.806 5.803 5.806h17.839c2.364-.646 5.588-5.806 5.588-5.806h-29.23zM1057.459 423.836l-7.522 20.858h7.522zM1059.178 416.803v27.891h8.597zM1044.134 446.415c1.29 3.441 5.803 5.806 5.803 5.806h17.839c2.363-.646 5.588-5.806 5.588-5.806h-29.23z"/><path fill="#1E3E59" d="M1046.024 452.22l-3.3 2.206h32.782l-6.503-2.857zM1408.809 665.63l-17.817 11.901h176.904l-35.092-15.415zM970.525 438.483l-3.3 2.206h32.782l-6.503-2.857z"/>
		</g>

		<g id="svg-clouds-back">
			<path opacity=".4" fill="#fff" d="M1659.446 89.514c-7.149 0-13.966 1.41-20.232 3.925-12.812-21.81-37.21-36.594-65.301-36.685-14.421-.057-27.887 3.855-39.346 10.568-13.117-14.912-32.229-24.361-53.591-24.415-35.326-.124-64.714 25.285-70.794 58.913-2.577-.346-5.18-.581-7.801-.581-33.939-.09-61.885 25.626-65.267 58.676l372.842 1.268c1.943-5.538 3.08-11.492 3.098-17.72.09-29.682-23.908-53.823-53.608-53.949z"/><path opacity=".2" fill="#fff" d="M467.674 152.19c-1.067 0-2.113.083-3.151.146-4.073-20.326-21.956-35.672-43.457-35.721-19.106-.082-35.397 11.945-41.749 28.855-6.069-2.164-12.576-3.401-19.396-3.434-32.503-.1-58.906 26.139-59.036 58.592l.085 1.529 223.396.766c-3.27-28.466-27.364-50.614-56.692-50.733z"/><path opacity=".1" fill="#fff" d="M289.866 41.912c-6.43 0-12.56 1.268-18.195 3.529-11.521-19.613-33.462-32.908-58.724-32.99-12.968-.051-25.077 3.467-35.383 9.504-11.795-13.41-28.982-21.906-48.192-21.955-31.768-.111-58.196 22.738-63.664 52.979-2.317-.311-4.657-.521-7.015-.521-30.521-.083-55.651 23.043-58.693 52.765l335.289 1.139c1.748-4.979 2.77-10.334 2.786-15.935.079-26.693-21.501-48.402-48.209-48.515z"/>
		</g>

		<g id="svg-clouds-front">
			<path opacity=".3" fill="#fff" d="M1001.479 35.575c-1.066 0-2.113.083-3.15.146-4.074-20.326-21.957-35.672-43.457-35.721-19.107-.082-35.398 11.945-41.75 28.855-6.068-2.164-12.576-3.401-19.395-3.434-32.504-.1-58.906 26.139-59.037 58.592l.086 1.529 223.395.766c-3.27-28.466-27.363-50.615-56.692-50.733z"/><path opacity=".4" fill="#fff" d="M294.735 286.291c-1.887 0-3.734.148-5.568.258-7.197-35.92-38.799-63.037-76.793-63.123-33.764-.144-62.553 21.109-73.775 50.992-10.727-3.826-22.225-6.012-34.275-6.068-57.437-.176-104.095 46.191-104.324 103.537l.15 2.703 394.764 1.353c-5.777-50.304-48.353-89.443-100.179-89.652z"/>
		</g>

		<g id="svg-balloon">
			<path fill="#CFE2EC" d="M156.444,0.589c0,0-44.183-1.193-98.183,48.14s-9.896,175.333,13.052,190s61.994,100.662,61.994,100.662
			h77.564l90.724-189.995c0,0,10.553-140.791-129.724-149.396L156.444,0.589z"/>
			<polygon fill="#1E3E59" points="216.111,419.896 210.603,419.883 210.901,330.672 216.413,330.672 "/>
			<polygon fill="#1E3E59" points="186.632,419.814 181.11,419.786 181.372,339.635 186.907,339.65 "/>
			<polygon fill="#1E3E59" points="157.113,419.692 151.597,419.679 151.865,339.527 157.388,339.542 "/>
			<polygon fill="#1E3E59" points="127.628,419.594 122.079,419.594 122.374,330.357 127.896,330.373 "/>
			<path fill="#1E3E59" d="M192.493,251.287c66.764-142.014,8.105-235.5-13.678-250.957C176.49,0.22,174.224,0,171.872,0
				c-5.209-0.013-10.342,0.233-15.428,0.589c-22.096,16.304-79.673,109.519-13.311,250.697c12.504,26.608,14.83,57.304,13.11,88.187
				l23.149,0.084C177.67,308.616,179.977,277.922,192.493,251.287z"/>
			<path fill="#1E3E59" d="M45.452,140.746C42.498,55.553,93.306,12.027,142.628,2.161C61.895,13.723,0.242,73.196,0.001,145.214
				c-0.163,51.531,31.184,96.836,78.533,122.936c20.748,15.443,36.665,30.655,38.854,71.188l15.919,0.054
				c-2.543-43.567-11.721-60.799-31.95-87.476C80.985,225.023,46.787,179.572,45.452,140.746z"/>
			<path fill="#1E3E59" d="M181.661,0.427c52.505,5.082,111.699,48.565,108.516,140.318c-1.35,38.826-35.525,84.277-55.904,111.17
				c-20.264,26.718-29.434,43.976-31.951,87.72l19.354,0.084c0.969-22.14,11.422-45.686,43.374-71.801
				c46.629-25.909,77.536-70.583,77.698-121.558C343.023,68.644,271.716,5.072,181.661,0.427z"/>
			<polygon fill="#1E3E59" points="220.292,406.886 118.416,406.545 125.88,470.159 212.39,470.46 "/>
		</g>

		<g id="svg-logo">
			<path fill="#EE2824" d="M2.517 485.225v-18.365h2.756v15.66h9.155v2.705h-11.911zM26.792 485.51c-2.671 0-4.982-1.154-6.529-2.967l1.964-1.914c1.237 1.342 3.044 2.18 4.778 2.18 2.57 0 3.805-.891 3.805-2.678 0-1.416-1.082-2.125-4.146-3.045-3.881-1.15-5.748-2.121-5.748-5.404 0-3.172 2.678-5.113 6.062-5.113 2.496 0 4.383.916 6.005 2.494l-1.938 1.963c-1.156-1.178-2.465-1.752-4.278-1.752-2.149 0-3.067 1.045-3.067 2.279 0 1.283.838 1.919 4.018 2.861 3.613 1.1 5.871 2.256 5.871 5.533-.002 3.305-2.102 5.563-6.797 5.563zM51.103 485.225v-18.365h11.832v2.672h-9.078v4.543h5.274v2.672h-5.274v5.797h9.471v2.682h-12.225zM81.729 485.225l-7.316-11.52c-.451-.681-1.075-1.783-1.363-2.258 0 .682.021 3.225.021 4.248v9.529h-2.676v-18.365h2.81l6.979 11.199c.472.764 1.259 2.125 1.521 2.599 0-.681-.027-3.308-.027-4.331v-9.467h2.682v18.365h-2.631zM99.243 469.559v15.666h-2.755v-15.666h-5.351v-2.699h13.459v2.699h-5.353zM111.374 485.225v-18.365h11.832v2.672h-9.078v4.543h5.274v2.672h-5.274v5.797h9.471v2.682h-12.225zM140.587 477.719l3.75 7.506h-3.177l-3.647-7.271h-4.143v7.271h-2.703v-18.365h8.054c3.201 0 5.903 1.703 5.903 5.479 0 2.938-1.547 4.747-4.037 5.38zm-1.866-8.266h-5.351v5.903h5.351c1.834 0 3.122-.942 3.122-2.937 0-1.915-1.256-2.966-3.122-2.966zM158.386 469.559v15.666h-2.756v-15.666h-5.352v-2.699h13.46v2.699h-5.352zM180.269 485.225l-1.549-4.357h-7.342l-1.523 4.357h-2.857l6.609-18.365h2.91l6.691 18.365h-2.939zm-3.855-11.049c-.445-1.309-1.181-3.438-1.392-4.223-.212.785-.863 2.883-1.337 4.25l-1.469 4.197h5.667l-1.469-4.224zM190.12 485.225v-18.365h2.754v18.365h-2.754zM212.27 485.225l-7.319-11.52c-.443-.681-1.078-1.783-1.365-2.258 0 .682.027 3.225.027 4.248v9.529h-2.677v-18.365h2.808l6.98 11.199c.471.764 1.256 2.125 1.52 2.599 0-.681-.026-3.308-.026-4.331v-9.467h2.677v18.365h-2.625zM236.551 485.225v-9.711c0-1.1.029-2.701.052-3.229-.212.527-.732 1.84-1.182 2.891l-4.457 10.334-4.408-10.334c-.447-1.051-.975-2.363-1.182-2.891.026.527.053 2.129.053 3.229v9.711h-2.603v-18.365h2.841l4.118 9.779c.444 1.051 1.022 2.389 1.257 3.154.264-.766.787-2.074 1.232-3.154l4.043-9.779h2.936v18.365h-2.7zM247.188 485.225v-18.365h11.832v2.672h-9.076v4.543h5.273v2.672h-5.273v5.797h9.47v2.682h-12.226zM277.816 485.225l-7.321-11.52c-.445-.681-1.072-1.783-1.361-2.258 0 .682.025 3.225.025 4.248v9.529h-2.678v-18.365h2.809l6.979 11.199c.474.764 1.262 2.125 1.523 2.599 0-.681-.027-3.308-.027-4.331v-9.467h2.676v18.365h-2.625zM295.328 469.559v15.666h-2.752v-15.666h-5.352v-2.699h13.457v2.699h-5.353zM329.819 485.225l-1.549-4.357h-7.347l-1.522 4.357h-2.861l6.612-18.365h2.913l6.69 18.365h-2.936zm-3.857-11.049c-.444-1.309-1.183-3.438-1.393-4.223-.207.785-.866 2.883-1.338 4.25l-1.467 4.197h5.665l-1.467-4.224zM346.831 485.225h-7.298v-18.365h7.556c3.205 0 5.277 1.676 5.277 4.773 0 1.861-.999 3.014-2.335 3.672 1.444.391 3.099 1.729 3.099 4.275 0 3.726-2.29 5.645-6.299 5.645zm.234-15.85h-4.932v4.75h4.932c1.812 0 2.545-1.131 2.545-2.338 0-1.363-.711-2.412-2.545-2.412zm.053 7.244h-4.984v6.082h4.904c2.445 0 3.336-1.229 3.336-3.041 0-1.889-1.186-3.041-3.256-3.041z"/><path fill="#fff" d="M166.772 435.291l-1.82-.008h-139.719c-1.154-.092-23.547-2.58-25.139-49.172-.131-3.701-.125-7.561.01-11.467 1.873-55.4.02-339.249 0-342.109-.006-.541-.089-13.762 9.286-23.273 6.062-6.143 14.589-9.262 25.35-9.262h134.28c1.281 0 2.318 1.039 2.318 2.318 0 1.28-1.037 2.316-2.318 2.316h-134.28c-9.455 0-16.861 2.643-22.015 7.851-8.015 8.099-7.985 19.888-7.985 20.003.019 2.879 1.876 286.819 0 342.316-.131 3.805-.136 7.553-.011 11.15 1.438 42.119 20.539 44.682 20.73 44.703l139.508-.012 1.792.004c42.631 0 73.661-10.48 92.28-31.164 21.325-23.689 18.339-52.727 18.305-53.016-.01-74.279-56.734-75.278-59.149-75.285-8.729 0-16.021-3.057-21.663-9.09-15.071-16.098-13.15-47.783-13.06-49.123l-.003-107.104c0-29.282 10.395-54.507 30.892-74.981 20.497-20.495 45.737-30.886 75.018-30.886h164.008c29.271 0 54.509 10.387 75.022 30.869 20.499 20.482 30.891 45.699 30.891 74.957v50.9c0 12.802-6.771 19.566-19.583 19.566l-187.729-5.188c-23.123.489-42.229-8.301-53.694-13.506-3.213-1.459-6.787-3.084-8.605-3.54 1.905 6.312 22.592 19.54 39.934 23.616 16.841 3.967 208.336 18.027 210.266 18.166h.016c12.634 0 19.396 6.77 19.396 19.576 0 1.279-1.039 2.318-2.315 2.318-1.282 0-2.321-1.039-2.321-2.318 0-10.193-4.751-14.945-14.946-14.945-8.07-.584-193.964-14.232-211.158-18.282-16.835-3.96-43.649-18.804-43.649-28.927 0-1.983 1.035-2.949 1.652-3.346 2.479-1.609 6.214.086 13.655 3.46 11.104 5.042 29.608 13.454 51.795 13.093l187.771 5.189c10.13 0 14.881-4.748 14.881-14.934v-50.9c0-27.982-9.936-52.096-29.532-71.672-19.611-19.585-43.75-29.52-71.744-29.52h-164.011c-28.007 0-52.144 9.938-71.742 29.535-19.596 19.572-29.533 43.691-29.533 71.698v107.259c-.022.461-1.876 31.186 11.82 45.809 4.73 5.051 10.878 7.615 18.275 7.615.638 0 63.772.908 63.772 79.662.124 1.011 3.221 31.152-19.485 56.375-19.535 21.708-51.729 32.706-95.714 32.706zM370.368 478.504c-1.043 0-1.994-.713-2.252-1.77-.301-1.244.459-2.5 1.699-2.803 170.224-41.594 184.725-254.279 184.854-256.424.074-1.281 1.328-2.263 2.449-2.176 1.28.076 2.254 1.166 2.179 2.448-.13 2.177-14.805 218.245-188.378 260.655-.184.046-.369.07-.551.07z"/>
		</g>

		<g id="svg-climber">
			<path fill-rule="evenodd" clip-rule="evenodd" d="M105.975 113.248c-.989.801-1.906 1.754-2.896 2.686-1.971 1.857-3.694 3.786-5.68 6.298-.646.815-1.26 1.726-1.882 2.646-.198.295-.459.621-.526.844l.029.584c-.138.496-.842 1.213-1.219 1.629-.294.326-.481.74-.707.982-.322.346-.768.52-1.164.762-.326.2-.867.318-1.189.53-.511.336-.786.948-1.363 1.194-.972.416-2.033-.275-2.645-1-.733-.87-1.474-1.736-2.165-2.643-.493-.645-1.063-1.256-1.41-2-.302-.648-.355-1.391-.81-1.966-.632-.798-1.439-1.439-2.095-2.22-1.886-2.252-3.329-4.641-4.624-7.267-.496-1.009-1.162-2.425-.917-3.579.558-2.613 3.277-.529 4.222.474l.458.573c.335.34.808.654 1.215 1.031.29.267.5.693.769.889.263.189.82.195 1.135.336l.595.4c.485.188.612-.129 1.101.381l.017.154c.09.084.529.416.734.579.292.234.697.499 1.059.698.1.055.266.207.259.204l.506-.02c.15.021.353.058.481.101.443.143.998.65 1.445.652.133 0 .455.019.611.203.216.254-.06.369.029.583l.249.128c.172.152.187.477.466.648.166.102.483.116.713.074l.223-.104c.623-.134 1.034-.284 1.568-.653.227-.157.523-.332.648-.467.267-.283.478-.766.724-1.18 1.528-2.58 3.002-5.307 4.435-7.912 1.76-3.199 3.782-6.506 6.284-9.186.754-.809 1.809-1.257 2.581-2.022.399-.397.685-.894 1.099-1.302 1.06-1.049 2.207-2.347 2.922-3.662.275-.508.453-.984.912-1.364 1.146-.948 2.805-.681 4.059-.126l1.079.293c2.23 1.027 2.973 3.536 3.388 5.748.142.757.25 1.52.375 2.279.079.469.426 1.984.426 1.984s.057.078.464.332c.33.207.71 3.904.864 4.533.373 1.521.532 3.021.698 4.582.223 2.117-.065 4.303-.332 6.396.317-.213.907.134 1.235-.145.743-.633.808-2.145 1.177-2.993.139-.319.412-.604.483-.878.081-.314-.11-.65-.117-1.004-.041-2.199 1.55-4.5 2.697-6.275.5-.773 1.279-1.573 1.649-2.41.222-.502.085-1.171.094-1.705.027-1.717.092-3.391-.152-5.1-.188-1.312-.512-2.599-.743-3.902-.227-1.281-.256-2.539-.311-3.834-.027-.652-.634-1.461-.99-2.115-2.534-4.645-3.096-10.294-4.069-15.41-.176-.934-.125-2.563-.706-3.36-.636-.873-1.302-1.6-1.713-2.617-.502-1.237-.27-2.527-.598-3.765-.078-.296-.165-.6-.194-.995-.016-.217.053-.381-.02-.506l-.431-.341-.233-.325c-.294-.218-.844-.297-.866-.301-.188-.035-.411 1.003-.926.705-.313-.182-.117-.554-.065-.892.057-.357-.007-.621.288-.894.324-.3 1.787-.1 2.163.1.153.081.973.723.973.723s-.355-.535-.458-.666c-.328-.417-.591-.748-1.244-1.263l-.732-.58-.333.156c-.197.074-.686.032-.955-.123-.096-.056-.421-.34-.405-.461.042-.348.596-.442.94-.658.215-.134.437-.374.573-.458.149-.092.245-.098.411-.165.418-.169.717-.53 1.181-.607.531-.016.99.376 1.431.617.416.227.892.37 1.262.672.703.574 1.712 2.266 1.712 2.266s.009-.924.036-1.374c.01-.17.112-.282.067-.438-.035-.118-.217-.292-.33-.47-.085-.135-.25-.479-.25-.479s-.213.048-.43.011c-.211-.036-.674-.242-.92-.518-.569-.639.535-.658.896-.692.443-.042.806-.134 1.099.028.425.235.974.957 1.218 1.383.183.318.158.777.222 1.227.29 2.035.96 4.085.875 6.158-.035.853-.106 1.713.056 2.497.077.365.253.742.367 1.131.579 1.982 1.094 3.982 1.623 5.979.497 1.871.924 3.815 1.797 5.556.596 1.185 1.616 4.263 1.616 4.263l-.226-1.062c-.247-1.245-.87-2.375-1.164-3.605-.327-1.375-.178-2.793-.099-4.189.229-3.939.803-7.812.897-11.764.017-.691.169-1.873-.072-2.296-.63-1.11-1.133-1.946-1.171-3.311-.036-1.355.704-3.258.172-4.558-.021-.052-.388-.518-.415-.538-.32-.244-.801-.097-1.068-.423-.256.512-.333.734-.922.812-.426.057-.743-.015-.414-.538.216-.344.698-.997.998-1.173.335-.197 1.498.021 1.498.021s-1.153-.913-1.445-1.24c-.144-.161-.234-.324-.234-.324.057.284-1.425.304-1.578.223-.185-.099-.463-.336-.536-.563-.076-.241.138-.173.138-.173s-.167-.113-.105-.222c.137-.244.734-.432 1.146-.565.35-.113.792-.41 1.164-.41.151 0 .611.203.611.203l.584-.029c.486-.046 1.312-.227 1.76-.01.156.076.412.375.698.623.367.318.829.602 1 .861.123.186.12.508.176.842.126.732.293 1.382.577 2.064.27.645.231 1.027.261 1.749.06 1.498.063 3.06.334 4.538.528 2.877.609 5.813 1.162 8.687.31 1.606.741 3.188 1.241 4.746.839 2.616 1.202 4.929 1.249 7.702.024 1.465-.111 3.246.373 4.609.45 1.27.811 2.553 1.002 3.887.042.293.269 2.303.269 2.303s.949.674 1.25.988c.717.747.944 1.848 1.216 2.715.084.269.175.466.244.752-.194-.797-.156-2.434-.026-3.242.108-.666.429-1.367 1.151-1.543.562-.137 1.2.441 1.697-.199.08-.101.074-.266.197-.336.211-.121.746.031.746.031s.356-.459.642-.545c.436-.131 1.176.371 1.208-.375.011-.274-.099-.439.218-.809.328-.38.562-.335 1.081-.126l.422.263c.324.144.688.243 1.025.377.255.102.566.316.85.266.33-.06.442-.416.607-.502.319-.162.96-.199 1.312-.152l.85.252c1.785.271 3.404.045 4.928 1.246 2.337 1.841 3.463 5.332 3.288 8.236-.141 2.336-1.61 4.316-3.678 5.341-1.275.632-2.966 1.383-4.41 1.4-.579.007-1.081-.233-1.603-.448-.837-.345-2.266-.371-3.146.076-.435.221-.609.646-.869 1.025-.351.518-.23.714.103 1.333.295.55.026.585.291 1.126.133.27.384.457.504.738.696 1.629.493 3.993.125 5.669-.341 1.554-.432 3.051-1.098 4.521-1.209 2.668-3.224 5.072-5.138 7.266-1.428 1.635-1.876 3.117-3.319 4.74-1.911 2.148-4.803 3.006-7.262 4.335-.832.45-1.647.93-2.462 1.409l-1.191.705s.029.71-1.479 1.635c-.718.438-1.693.532-2.497.757-1.537.431-2.737 1.112-4.083 1.937-1.599.979-3.538 1.198-5.344 1.545-4.714.904-9.124 2.848-13.759 4.033-1.241.318-2.563.453-3.736.99-.541.246-2.239.398-2.776-.064-.585-.504-.917-.63-.917-.63s-2.197.017-3.265.167c-.974.137-1.957.236-2.941.23-.65-.004-1.538-.186-2.074.286-.259.228-.36.72-.355.981.048 2.535-1.418 5.81-3.27 7.546-3.025 2.833-6.508 5.079-9.7 7.7-.368.303-.677.662-.919 1.072-.287.484-.212.884-.284 1.421-.052.408-.085.931-.577 1.354-.375.321-.795.556-.904.712l.097.293s-2.287 1.258-2.859 1.771c-.251.225-.326.533-.657.742l-.334.156-.453.483c-.57.421-1.241.681-1.904.915-.633.223-1.324.204-1.933.43-.844.312-1.7.715-2.607.387-.843-.304-1.023-1.158-.935-1.984.156-1.462.193-2.947-.166-4.383-.338-1.357-.408-2.789.854-3.738.318-.239.531-.463.795-.562.326-.124.957-.018 1.52-.061.789-.06 1.445-.188 2.043.426.163.166.167.354.32.395.152.039.714-.386 1.104-.6.144-.078.966-.541 1.07-.555.193-.024.645.159.645.159s.374-.298.495-.449c.145-.178.212-.4.367-.552.243-.236.689-.273.958-.502.266-.227.445-.648.605-.854 1.647-2.105 3.227-4.23 4.269-6.803.444-1.096.771-2.255 1.405-3.264.512-.814 1.854-2.199 1.854-2.199s.254-.576.355-.979c.442-1.757.568-3.638 1.627-5.159 1.17-1.684 2.524-2.686 4.427-3.418 2.048-.789 4.196-1.285 6.237-2.092.418-.166 2.054-.884 2.054-.884l.119-.327c.351-.961 1.991-1.438 2.843-1.745 1.833-.663 3.517-1.657 5.189-2.644 1.008-.594 2.122-.996 3.097-1.646.595-.397 1.154-.96 1.536-1.565.495-.781.316-1.189.154-2.033-.435-2.264-.651-4.328-.581-6.645.03-.994.245-1.995.496-2.955.1-.355.005-.713-.008-1.131zm16.348-56.998l-.706-.348c-.322-.212-.792-.88-1.11-.458.438.38 1.015.526 1.345.782.55.429.788 1.156 1.423 1.477-.391-.31-.471-1.059-.952-1.453zm-35.874 60.335c.141.462.462.232.706.348l.19.291c.107.069.379.034.515.058.2.032.349.17.516.057-.51-.443-1.334-.718-1.927-.754z"/><path d="M105.486 85.093c-.239-.1-.488-.096-.701.01-.456.229-1.081.541-9.735 49.067-5.939 33.307-13.295 76.145-18.42 106.215-12.903 75.71-26.05 154.854-26.05 156.822 0 2.822 1.14 10.414 1.703 13.988h1.052c-.547-3.479-1.716-11.23-1.716-13.988.034-2.221 53.672-311.014 53.672-311.014 2.064 1.871 8.848 20.156 14.399 37.066l.986-.324c-2.002-6.095-12.14-36.57-15.19-37.842z"/><path fill-rule="evenodd" clip-rule="evenodd" fill="#193851" d="M159.683 0h-159.683v411.195h48.704c.339-4.533 1.185-11.076-.165-14.845-1.323-3.694-5.797-4.89-7.029-9.181-1.568-5.467 1.32-8.405-4.319-11.672-2.074-1.201-4.16-2.303-6.531-2.531-2.419-.232-4.63.703-6.846-.823l-.286-1.255c.008.035-1.036-.334-1.141-.406-.361-.248-.546-.582-.821-.902-.55-.645-1.464-.797-1.588-1.82-.064-.53-.117-.975-.235-1.502-.105-.466.003-.934-.075-1.4l-.154-.033c-.108-.254-.341-.262-.52-.431l-.353-.468c-.446-.475-.559-.554-.552-1.225.008-.924.108-1.938-.118-2.834-.157-.623-.345-1.275-.46-1.902-.081-.442-.056-.977-.21-1.397-.213-.587-1.054-1.11-.499-1.821.307-.391.732-.193.545-.831-.086-.294-.385-.612-.291-.925.393.148.696.666.983.949.282.276.577.563.868.835.247.229.738.503.863.817.148.373.006 1.066.007 1.473.004.913-.522 2.171-.102 3.051.146.305.391.633.564.938.164.288.547.932.84 1.072.02.318.558.582.774.781.337.311.766.787 1.292.674.464-.101.779-.707 1.056-1.037.263-.312.585-.537.864-.831.339-.358.216-.632.34-1.037.17-.556.584-.083.979-.292.254-.135.337-.613.544-.812.239-.228.584-.45.853-.649.727-.539 1.528-.406 2.367-.51.057-.624.185-1.164.206-1.803.018-.531.219-.92.38-1.378.188-.536-.184-2.78.906-2.474-.013.438.433.979.763 1.246l.289.166c.096.096.068.254.194.33.17.102.708.025.897 0 .038-.311.139-.457.204-.729.128-.535.137-1.287.106-1.839-.037-.657-.069-1.312-.238-1.947-.184-.687-.561-.952-.984-1.491-.408-.52-.743-1.061-1.195-1.555-.423-.462-.933-.854-1.337-1.332-.455-.538-.258-1.368-.263-2.025-.003-.33-.073-.706.007-1.029.08-.322.339-.542.452-.848.209-.564.284-1.202.277-1.796-.006-.642.135-1.37-.231-1.933-.347-.533-.73-.981-.859-1.633-.151-.764-.016-1.66-.017-2.439 0-.949.082-1.951-.113-2.879-.199-.947-.403-1.893-.63-2.834-.836-3.461-2.862-5.898-3.124-9.684-.257-3.732-.088-7.289-.516-11.031-.434-3.799.284-7.7-.418-11.466-.539-2.888-3.043-5.071-3.337-7.96-.077-.758-.012-1.529.076-2.282.097-.823-.073-1.405-.456-2.146-.129-.25-.278-.314-.461-.514-.229-.251-.154-.359-.189-.688-.108-.984.009-2.088-.24-3.037-.067-.254-.01-.523-.122-.771-.104-.229-.342-.441-.477-.656-.234-.375-.351-.825-.597-1.18-.287-.414-.588-.605-.641-1.123-.055-.555-.003-1.138-.002-1.695l-.001-1.568c-.001-.512-.112-1.107-.082-1.577.796-.155 1.498 2.433 1.498 2.954 0 .309-.074.701.094.946.119.175.459.351.644.462.413.248.972.607 1.413.738.154.655.977.756 1.519.602l.401-.213.471-.061c.823-.229 1.125-.746 1.622-1.391 1.735-2.252 3.667-4.416 4.784-7.066 1.939-4.602 2.686-9.523 5.083-13.969 2.045-3.791 5.575-7.097 5.636-11.609.047-3.537-.828-7.145-1.613-10.562-.511-2.226-.706-4.536-.513-6.812.091-1.078.438-2.105.568-3.155.13-1.051-.043-2.041.332-3.068.383-1.051.19-2.291.202-3.44.008-.763-.059-1.007-.423-1.661-.184-.33-.444-.637-.503-1.058-.139-.985-.041-2.05-.424-3.015-.376-.945-1.074-1.663-1.233-2.74-.162-1.095.003-2.359.005-3.471.001-1.007-.261-2.455.009-3.426.222-.799 1.141-1.549 1.508-2.301.233-.477.271-.89.438-1.388.16-.478.569-.808.78-1.227.48-.954.065-2.038.261-3.054 2.345.863.655 3.24.532 4.932-.268 3.665-.128 7.35-.184 11.027-.018 1.131-.066 1.441.806 2.146.705.57 1.019 1.186 1.294 2.033.332 1.021.492 2.41 1.394 3.111 1.256.978 2.229.318 2.709-1.011 1.323-3.661 1.043-8.167 1.616-12.087l1.006-.219c.672-4.169 1.478-8.238 1.918-12.359.253-2.372.99-8.391.99-8.391s4.195 1.941 5.593.893c1.399-1.049-.564-6.154.091-8.836.445-1.82 1.625-2.335 2.425-3.838.862-1.619.122-2.932.71-4.551.921-2.533 3.146-2.949 3.533-5.75.311-2.248.008-4.283 1.599-6.045 1.068-1.184 2.192-1.723 3.197-3.154 2.274-3.238 5.245-6.611 6.291-10.576.904-3.43.432-7.418.431-11.015-.001-3.407.005-6.815.003-10.224-.001-3.162-1.228-6.561-.602-9.592.614-2.977 2.091-5.988 2.445-9.074.203-1.766-.476-3.984-.043-5.701.481-1.912 1.251-1.65 2.466-2.971-.081.327-.056.65.072.968 1.934-.599 2.373-2.517 3.788-3.731 1.093-.938 2.47-1.402 3.6-2.476 2.595-2.466 3.539-3.289 7.12-3.305 5.787-.026 11.716-.769 15.283-6.327 1.57-2.448 2.1-7.989 2.1-7.989s5.293-3.86 7.307-5.692c1.784-1.624 3.776-2.944 5.727-4.843.541-.526 1.072-1.062 1.546-1.65.624-.771 1.072-1.648 1.199-2.641.067-.525.089-1.06.128-1.587.042-.569-.057-1.164 0-1.724.036-.349 1.12-.976 1.224-1.269.092-.261-.491-.598-.525-.875-.868-.123-2.195.35-3.075.35-.396 0-.839.059-1.212-.063-.341-.112-.562-.309-.917-.374-.404-.074-.619-.264-1.045-.261-.347.001-.825-.084-1.154.016-.438.133-.513.592-.955.577-.329-.011-.659-.156-1.04-.156-1.846 0-3.671-.084-5.518-.129-4.318-.106-9.788 1.252-13.968.046-1.79-.517-2.234-1.167-4.312-1.289-2.476-.146-4.931.2-7.413-.131-.223-.573-.203-1.16 0-1.734 2.699-.41 5.562.652 8.246-.059 3.418-.905 5.485-2.66 9.349-2.622 4.122.041 8.239-.02 12.353.023 4.01.041 8.029-.705 11.886-1.268 4.084-.596 8.444-.063 12.542-.768.809-.14 1.225-5.203 1.997-6.127 1.485-1.777 3.66-2.251 4.833-4.484 1.913-3.643-.647-9.277 1.456-12.948.669-1.167 1.201-1.149 1.533-2.574.255-1.097-.032-3.531-.032-3.531s1.706-2.626 3.053-4.49c.598-.826 2.168-3.189 3.353-5.439z"/><path fill="#193851" d="M48.704 411.195l3.827 25.447-4.895 14.999v18l4.895 22.498-4.895 6v14.999l2.447 26.999-9.945 13.499v26.339l6.196 1.796-6.196 30.362v15l6.196 10.499-6.196 14.999v67.049l10.442 19.947-10.442 10.834v38.702l6.196 16.46 6.197 20.999v8.999l17.605 13.5v44.998h9.706l5.786 13.499-5.786 11.32 32.086 30.678v17.999l8.748 10.5v19.498l-8.748 9 8.748 9 8.731 26.998-4.189 19.499v10.499l4.189 21h15.725v30.904l3.222 314.847h-148.354v-1041.987z"/>
		</g>

		<g id="svg-rocks">
			<linearGradient id="a" gradientUnits="userSpaceOnUse" x1="960" y1="1665.01" x2="960"><stop offset="0" stop-color="#A6DDE9"/><stop offset=".133" stop-color="#749AAB"/><stop offset=".271" stop-color="#516F82"/><stop offset=".412" stop-color="#375165"/><stop offset=".554" stop-color="#243D52"/><stop offset=".698" stop-color="#163045"/><stop offset=".845" stop-color="#0C283E"/><stop offset="1" stop-color="#08263C"/></linearGradient><path fill="url(#a)" d="M1920 88.208l-152.381 54.481-196.404 2.595-77.882 80.425-88.041 37.176-169.315-151.327-91.427-23.35-88.043 75.237-128.676-38.916-172.699 98.586h-155.767l-81.27-142.69-84.656 49.293h-101.587l-67.725-92.375-264.127-37.343v1665.01h1915.648z"/>
		</g>
	</defs>
</svg>