<!DOCTYPE svg PUBLIC "-//W3C//DTD SVG 1.1//EN" "http://www.w3.org/Graphics/SVG/1.1/DTD/svg11.dtd" [
	<!ENTITY ns_flows "http://ns.adobe.com/Flows/1.0/">
]><svg xmlns="http://www.w3.org/2000/svg" width="411" height="552" viewBox="-36.273 -33.234 411 552" enable-background="new -36.273 -33.234 411 552"><path fill="#CFE2EC" d="M156.444.589s-44.183-1.193-98.183 48.14-9.896 175.333 13.052 190l61.994 100.662h77.564l90.724-189.995s10.553-140.791-129.724-149.396l-15.427.589z"/><path fill="#1E3E59" d="M216.111 419.896l-5.508-.013.298-89.211h5.512zM186.632 419.814l-5.522-.028.262-80.151 5.535.015zM157.113 419.692l-5.516-.013.268-80.152 5.523.015zM127.628 419.594h-5.549l.295-89.237 5.522.016zM192.493 251.287c66.764-142.014 8.105-235.5-13.678-250.957-2.325-.11-4.591-.33-6.943-.33-5.209-.013-10.342.233-15.428.589-22.096 16.304-79.673 109.519-13.311 250.697 12.504 26.608 14.83 57.304 13.11 88.187l23.149.084c-1.722-30.941.585-61.635 13.101-88.27zM45.452 140.746c-2.954-85.193 47.854-128.719 97.176-138.585-80.733 11.562-142.386 71.035-142.627 143.053-.163 51.531 31.184 96.836 78.533 122.936 20.748 15.443 36.665 30.655 38.854 71.188l15.919.054c-2.543-43.567-11.721-60.799-31.95-87.476-20.372-26.893-54.57-72.344-55.905-111.17zM181.661.427c52.505 5.082 111.699 48.565 108.516 140.318-1.35 38.826-35.525 84.277-55.904 111.17-20.264 26.718-29.434 43.976-31.951 87.72l19.354.084c.969-22.14 11.422-45.686 43.374-71.801 46.629-25.909 77.536-70.583 77.698-121.558.275-77.716-71.032-141.288-161.087-145.933zM220.292 406.886l-101.876-.341 7.464 63.614 86.51.301z"/></svg>