<!DOCTYPE svg PUBLIC "-//W3C//DTD SVG 1.1//EN" "http://www.w3.org/Graphics/SVG/1.1/DTD/svg11.dtd" [
	<!ENTITY ns_flows "http://ns.adobe.com/Flows/1.0/">
]><svg xmlns="http://www.w3.org/2000/svg" width="678" height="567" viewBox="-74.077 -47.871 678 567" enable-background="new -74.077 -47.871 678 567"><path fill="#EE2824" d="M2.517 485.225v-18.365h2.756v15.66h9.155v2.705h-11.911zM26.792 485.51c-2.671 0-4.982-1.154-6.529-2.967l1.964-1.914c1.237 1.342 3.044 2.18 4.778 2.18 2.57 0 3.805-.891 3.805-2.678 0-1.416-1.082-2.125-4.146-3.045-3.881-1.15-5.748-2.121-5.748-5.404 0-3.172 2.678-5.113 6.062-5.113 2.496 0 4.383.916 6.005 2.494l-1.938 1.963c-1.156-1.178-2.465-1.752-4.278-1.752-2.149 0-3.067 1.045-3.067 2.279 0 1.283.838 1.919 4.018 2.861 3.613 1.1 5.871 2.256 5.871 5.533-.002 3.305-2.102 5.563-6.797 5.563zM51.103 485.225v-18.365h11.832v2.672h-9.078v4.543h5.274v2.672h-5.274v5.797h9.471v2.682h-12.225zM81.729 485.225l-7.316-11.52c-.451-.681-1.075-1.783-1.363-2.258 0 .682.021 3.225.021 4.248v9.529h-2.676v-18.365h2.81l6.979 11.199c.472.764 1.259 2.125 1.521 2.599 0-.681-.027-3.308-.027-4.331v-9.467h2.682v18.365h-2.631zM99.243 469.559v15.666h-2.755v-15.666h-5.351v-2.699h13.459v2.699h-5.353zM111.374 485.225v-18.365h11.832v2.672h-9.078v4.543h5.274v2.672h-5.274v5.797h9.471v2.682h-12.225zM140.587 477.719l3.75 7.506h-3.177l-3.647-7.271h-4.143v7.271h-2.703v-18.365h8.054c3.201 0 5.903 1.703 5.903 5.479 0 2.938-1.547 4.747-4.037 5.38zm-1.866-8.266h-5.351v5.903h5.351c1.834 0 3.122-.942 3.122-2.937 0-1.915-1.256-2.966-3.122-2.966zM158.386 469.559v15.666h-2.756v-15.666h-5.352v-2.699h13.46v2.699h-5.352zM180.269 485.225l-1.549-4.357h-7.342l-1.523 4.357h-2.857l6.609-18.365h2.91l6.691 18.365h-2.939zm-3.855-11.049c-.445-1.309-1.181-3.438-1.392-4.223-.212.785-.863 2.883-1.337 4.25l-1.469 4.197h5.667l-1.469-4.224zM190.12 485.225v-18.365h2.754v18.365h-2.754zM212.27 485.225l-7.319-11.52c-.443-.681-1.078-1.783-1.365-2.258 0 .682.027 3.225.027 4.248v9.529h-2.677v-18.365h2.808l6.98 11.199c.471.764 1.256 2.125 1.52 2.599 0-.681-.026-3.308-.026-4.331v-9.467h2.677v18.365h-2.625zM236.551 485.225v-9.711c0-1.1.029-2.701.052-3.229-.212.527-.732 1.84-1.182 2.891l-4.457 10.334-4.408-10.334c-.447-1.051-.975-2.363-1.182-2.891.026.527.053 2.129.053 3.229v9.711h-2.603v-18.365h2.841l4.118 9.779c.444 1.051 1.022 2.389 1.257 3.154.264-.766.787-2.074 1.232-3.154l4.043-9.779h2.936v18.365h-2.7zM247.188 485.225v-18.365h11.832v2.672h-9.076v4.543h5.273v2.672h-5.273v5.797h9.47v2.682h-12.226zM277.816 485.225l-7.321-11.52c-.445-.681-1.072-1.783-1.361-2.258 0 .682.025 3.225.025 4.248v9.529h-2.678v-18.365h2.809l6.979 11.199c.474.764 1.262 2.125 1.523 2.599 0-.681-.027-3.308-.027-4.331v-9.467h2.676v18.365h-2.625zM295.328 469.559v15.666h-2.752v-15.666h-5.352v-2.699h13.457v2.699h-5.353zM329.819 485.225l-1.549-4.357h-7.347l-1.522 4.357h-2.861l6.612-18.365h2.913l6.69 18.365h-2.936zm-3.857-11.049c-.444-1.309-1.183-3.438-1.393-4.223-.207.785-.866 2.883-1.338 4.25l-1.467 4.197h5.665l-1.467-4.224zM346.831 485.225h-7.298v-18.365h7.556c3.205 0 5.277 1.676 5.277 4.773 0 1.861-.999 3.014-2.335 3.672 1.444.391 3.099 1.729 3.099 4.275 0 3.726-2.29 5.645-6.299 5.645zm.234-15.85h-4.932v4.75h4.932c1.812 0 2.545-1.131 2.545-2.338 0-1.363-.711-2.412-2.545-2.412zm.053 7.244h-4.984v6.082h4.904c2.445 0 3.336-1.229 3.336-3.041 0-1.889-1.186-3.041-3.256-3.041z"/><path fill="#fff" d="M166.772 435.291l-1.82-.008h-139.719c-1.154-.092-23.547-2.58-25.139-49.172-.131-3.701-.125-7.561.01-11.467 1.873-55.4.02-339.249 0-342.109-.006-.541-.089-13.762 9.286-23.273 6.062-6.143 14.589-9.262 25.35-9.262h134.28c1.281 0 2.318 1.039 2.318 2.318 0 1.28-1.037 2.316-2.318 2.316h-134.28c-9.455 0-16.861 2.643-22.015 7.851-8.015 8.099-7.985 19.888-7.985 20.003.019 2.879 1.876 286.819 0 342.316-.131 3.805-.136 7.553-.011 11.15 1.438 42.119 20.539 44.682 20.73 44.703l139.508-.012 1.792.004c42.631 0 73.661-10.48 92.28-31.164 21.325-23.689 18.339-52.727 18.305-53.016-.01-74.279-56.734-75.278-59.149-75.285-8.729 0-16.021-3.057-21.663-9.09-15.071-16.098-13.15-47.783-13.06-49.123l-.003-107.104c0-29.282 10.395-54.507 30.892-74.981 20.497-20.495 45.737-30.886 75.018-30.886h164.008c29.271 0 54.509 10.387 75.022 30.869 20.499 20.482 30.891 45.699 30.891 74.957v50.9c0 12.802-6.771 19.566-19.583 19.566l-187.729-5.188c-23.123.489-42.229-8.301-53.694-13.506-3.213-1.459-6.787-3.084-8.605-3.54 1.905 6.312 22.592 19.54 39.934 23.616 16.841 3.967 208.336 18.027 210.266 18.166h.016c12.634 0 19.396 6.77 19.396 19.576 0 1.279-1.039 2.318-2.315 2.318-1.282 0-2.321-1.039-2.321-2.318 0-10.193-4.751-14.945-14.946-14.945-8.07-.584-193.964-14.232-211.158-18.282-16.835-3.96-43.649-18.804-43.649-28.927 0-1.983 1.035-2.949 1.652-3.346 2.479-1.609 6.214.086 13.655 3.46 11.104 5.042 29.608 13.454 51.795 13.093l187.771 5.189c10.13 0 14.881-4.748 14.881-14.934v-50.9c0-27.982-9.936-52.096-29.532-71.672-19.611-19.585-43.75-29.52-71.744-29.52h-164.011c-28.007 0-52.144 9.938-71.742 29.535-19.596 19.572-29.533 43.691-29.533 71.698v107.259c-.022.461-1.876 31.186 11.82 45.809 4.73 5.051 10.878 7.615 18.275 7.615.638 0 63.772.908 63.772 79.662.124 1.011 3.221 31.152-19.485 56.375-19.535 21.708-51.729 32.706-95.714 32.706zM370.368 478.504c-1.043 0-1.994-.713-2.252-1.77-.301-1.244.459-2.5 1.699-2.803 170.224-41.594 184.725-254.279 184.854-256.424.074-1.281 1.328-2.263 2.449-2.176 1.28.076 2.254 1.166 2.179 2.448-.13 2.177-14.805 218.245-188.378 260.655-.184.046-.369.07-.551.07z"/></svg>