<svg xmlns="http://www.w3.org/2000/svg" width="1920" height="794" viewBox="0 -55.063 1920 794" enable-background="new 0 -55.063 1920 794"><linearGradient id="a" gradientUnits="userSpaceOnUse" x1="960" y1="371.872" x2="960" y2="738.937"><stop offset="0" stop-color="#2E587A"/><stop offset="1" stop-color="#1E3E59"/></linearGradient><path fill="url(#a)" d="M0 371.872h1920v367.065h-1920z"/><path opacity=".7" fill="#2E587A" d="M0 247.738v124.182h1124.36v-75.79h1.226l-.94-7.812-9.612-10.715-7.316-4.248h-3.539v-2.504h-3.529v-19.996h-1.176v19.996h-4.704v2.504h-1.974v-2.504h-9.405v2.504h-1.974v-2.504h-9.405v2.504h-2.29l-1.315 16.467h3.844l-.123 8.066h-8.113v-9.992h-.907v-9.354h.907v-18.826h-.907v-9.365h1.096v-18.816h-1.097v-4.67l-8.48-10.125h-3.023v-1.672h-6.382v-13.109h-6.717v-15.469h-1.345v15.469h-14.78v13.109h-4.702v4.248h-3.266v12.219h-1.458v18.816h1.458v9.365h-1.457v18.826h1.457v9.354h-1.457v.902h-1.79v-9.557h-.558v9.557h-2.802v-4.418h1.028v-1.408h-3.266v-5.031h-1.679v-9.521h-1.864v-9.703h-.656v9.703h-2.424v9.521h-1.328v-4.756h.594v-1.684h-.594v-5.971h.594v-1.674h-.594v-5.982h.594v-1.674h-.594v-5.971h.594v-1.686h-.594v-5.971h.594v-1.686h-.594v-5.971h.594v-1.674h-.594v-5.971h.594v-1.686h-.594v-5.971h.594v-1.684h-.594v-5.971h.594v-1.686h-.594v-5.971h.594v-1.674h-.594v-5.971h.594v-1.686l-6.188-11.508h-32.466l-.686 11.508v1.686h.686v5.971h-.686v1.674h.686v5.971h-.686v1.686h.686v5.971h-.686v1.684h.686v5.971h-.686v1.686h.686v5.971h-.686v1.674h.686v5.971h-.686v1.686h.686v5.971h-.686v1.686h.686v5.971h-.686v1.674h.686v5.982h-.686v1.674h.686v5.971h-.686v1.684h.686v5.971h-.686v.543h-1.017v-6.561h-2.802v-17.07h-.558v17.07h-2.214v-35.393h1.024v-2.623l-9.98-5.164h-8.699v-21.488h-.839v21.488h-30.719v-12.748h-.561v12.748h-2.176v-5.43h-9.052v-5.031h-3.359v-20.789h-.558v20.789h-1.427v5.031h-1.554v5.43h-2.624l-1.38 5.164v2.623h1.38v12.436h-2.532v6.477h-3.919v-35.861h-.828v-5.32h.828v-37.799h-.828v-5.32h.828v-37.799h-.828v-6.332h1.244v-2.623l-16.355-12.689h-38.062l-9.778 12.689v2.623h1.384v153.314h-3.643v12.314h-2.797v4.033h-3.293v-.566h1.054v-2.238h-1.054v-3.553h1.054v-2.238h-1.054v-5.418h1.054v-2.238h-1.054v-5.416h1.054v-2.24h-1.054v-5.404h1.054v-2.24h-1.054v-7.281h1.054v-2.24h-1.054v-7.283h1.054v-2.238h-1.054v-7.283h1.054v-2.238h-1.054v-7.274h1.054v-2.238h-1.054v-9.148h1.054v-2.24h-1.054v-.107l-9.331-10.822-7.463-3.732h-9.216v-30.732h-1.679v30.732h-4.427v-19.055h-1.679v19.055h-18.07v3.732l-.088 10.93h-1.837v2.24h1.819l-.072 9.148h-1.747v2.238h1.731l-.061 7.271h-1.671v2.238h1.653l-.057 7.283h-1.597v2.238h1.579l-.027 3.443h-3.754v-10.389h-1.679v10.389h-1.285v5.057h-2.112v4.479h2.112v5.031h-2.112v4.479h2.112v3.178h-2.112v4.477h2.112v2.793h-3.73v-110.519h1.306v-2.564l-18.094-12.352h-.061v-12.398h-7.273v-10.076h-7.557v10.076h-1.96v-10.076h-7.553v10.076h-1.962v-10.076h-7.552v10.076h-1.962v-10.076h-7.555v10.076h-1.958v-10.076h-7.557v10.076h-3.356v12.398h-.41v11.678h-1.55v21.006h1.55v7.186h-1.55v20.994h1.55v12.424h-5.606v13.193h-7.079v-162.524h.633v-4.129l-5.856-8.859h-8.542v-20.79h-1.119v20.789h-39.215l-.89 8.859v4.129h.89v174.188h-7.234v-.422h-.602v-2.238h.602v-1.674h-.602v-2.238h.602v-1.686h-.602v-2.238h.602v-1.674h-.602v-2.252h.602v-1.672h-.602v-2.24h.602v-1.686h-.602v-2.238h.602v-1.674h-.602v-2.238h.602v-1.686h-.602v-2.238h.602v-1.686h-.602v-2.24h.602v-1.672h-.602v-2.24h.602v-1.686h-.602v-2.238h.602v-1.674h-.602v-2.238h.602v-1.686h-.602v-2.432h.602v-1.674h-.602v-2.238h.602v-1.686h-.602v-2.42h.602v-1.686h-.602v-8.582l-27.569-65.992h-4.01v-5.211h-10.633v-19.885h-1.679v19.887h-2.237v-4.479h-8.396v-31.923h-1.677v31.924h-18.469v9.689h-12.23l-11.039 25.111v5.514h-1.078v26.314h1.078v11.195h-1.078v26.326h1.078v7.465h-1.078v24.617h-9.155v-32.744h-5.997v-200.934l-49.373-13.879-18.161 13.879v245.199h-10.114v24.293h-8.41v-21.164h6.432v-13.807h-6.432v-5.598h9.788v-2.238h-9.788v-6.537h6.432v-13.807h-6.432v-5.598h9.788v-2.24h-9.788v-6.535h6.432v-13.82h-6.432v-5.598h9.788v-2.238h-9.788v-24.076h4.421v-3.166h-5.04l-40.588-12.688h-5.481v-11.641h2.106v-3.432h-10.275v-11.062h5.005v-3.43h-7.711l-27.589-13.447-9.155 4.672v-26.255h-1.494v27.014l-15.748 8.018h-6.799v3.43h4.211v11.062h-9.216v3.432h1.578v11.641l-23.214 3.346v9.342h-6.407v-20.537h-1.493v20.537h-18.943v3.166h3.953v18.67h-8.519v2.24h8.519v5.598h-5.161v13.807h5.161v6.537h-8.519v2.238h8.519v5.598h-5.161v13.82h5.161v6.523h-8.519v2.24h8.519v5.598h-5.161v13.818h5.161v6.525h-9.753v-35.079h1.979v-5.611l-18.77-11.855h-56.716v23.064h-1.744v13.434h1.744v3.551h-1.744v13.434h1.744v3.553h-1.744v13.434h1.744v.264h-8.085v-8.475h-7.935v-1.311h1.588v-7.465h-1.588v-9.521h1.588v-7.463h-1.588v-13.254h1.588v-7.463h-1.588v-12.881h1.588v-7.463h-1.588v-13.254h1.588v-7.465h-1.588v-13.253h1.588v-7.465h-1.588v-13.254h1.588v-7.463h-1.588v-13.254h1.588v-7.475h-1.588v-5.971h5.317v-2.986l-18.787-17.814h-33.82v-21.006h-1.492v21.006h-10.173v189.197h-10.737v-12.109h2.604v-3.768h-11.256v-22.15l-18.576-14.217-10.732 5.441v-7.344h-1.156v7.922l-16.17 8.198zm960.275-65.449h31.203v-3.07h-31.203v3.07zm1.133-4.178h15.806v-5.104h-11.984v-13.459h-1.025v13.459h-2.797v5.104zm-772.904 31.094h5.973v-9.328h-5.973v9.328zm-7.645 0h5.968v-9.328h-5.968v9.328zm-7.652 0h5.968v-9.328h-5.968v9.328zm-7.652 0h5.973v-9.328h-5.973v9.328zm-7.647 0h5.973v-9.328h-2.213v-27.303h-1.492v27.303h-2.268v9.328zm-7.646 0h5.968v-9.328h-5.968v9.328z"/><linearGradient id="b" gradientUnits="userSpaceOnUse" x1="562.793" y1="491.573" x2="562.793" y2="371.872"><stop offset="0" stop-color="#08263C" stop-opacity="0"/><stop offset=".896" stop-color="#08263C" stop-opacity=".896"/><stop offset="1" stop-color="#08263C"/></linearGradient><path opacity=".3" fill="url(#b)" d="M16.171 414.478v2.55h1.155v-2.364l10.732 1.751 18.576-4.576v-7.128h11.256v-1.213h-2.604v-3.898h10.738v60.894h10.172v6.76h1.492v-6.76h33.82l18.787-5.735v-.96h-5.317v-1.921h1.588v-2.407h-1.588v-4.265h1.588v-2.402h-1.588v-4.266h1.588v-2.403h-1.588v-4.265h1.588v-2.402h-1.588v-4.266h1.588v-2.402h-1.588v-4.146h1.588v-2.402h-1.588v-4.266h1.588v-2.402h-1.588v-3.064h1.588v-2.402h-1.588v-.422h7.935v-2.728h8.085v.085h-1.744v4.323h1.744v1.144h-1.744v4.323h1.744v1.144h-1.744v4.323h1.744v7.424h56.716l18.77-3.816v-1.806h-1.979v-11.29h9.753v2.1h-5.161v4.448h5.161v1.802h-8.519v.72h8.519v2.101h-5.161v4.448h5.161v1.802h-8.519v.72h8.519v2.104h-5.161v4.443h5.161v1.802h-8.519v.721h8.519v6.009h-3.953v1.019h18.943v6.61h1.493v-6.61h6.407v3.008l23.214 1.076v3.746h-1.578v1.105h9.216v3.56h-4.211v1.104h6.799l15.748 2.58v8.693h1.494v-8.45l9.155 1.504 27.589-4.327h7.711v-1.104h-5.005v-3.56h10.276v-1.105h-2.106v-3.746h5.481l40.588-4.084h5.04v-1.019h-4.421v-7.749h9.788v-.721h-9.788v-1.801h6.432v-4.447h-6.432v-2.104h9.788v-.722h-9.788v-1.802h6.432v-4.443h-6.432v-2.104h9.788v-.721h-9.788v-1.803h6.432v-4.442h-6.432v-6.812h8.41v7.818h10.114v78.916l18.161 4.467 49.373-4.467v-64.67h5.997v-10.539h9.155v7.923h1.078v2.403h-1.078v8.473h1.078v3.604h-1.078v8.469h1.078v1.774l11.039 8.082h12.23v3.119h18.469v10.274h1.677v-10.274h8.396v-1.441h2.237v6.4h1.679v-6.4h10.633v-1.678h4.01l27.569-21.239v-2.763h.602v-.542h-.602v-.779h.602v-.542h-.602v-.72h.602v-.539h-.602v-.783h.602v-.542h-.602v-.721h.602v-.539h-.602v-.72h.602v-.543h-.602v-.721h.602v-.538h-.602v-.72h.602v-.544h-.602v-.72h.602v-.543h-.602v-.721h.602v-.538h-.602v-.72h.602v-.544h-.602v-.72h.602v-.539h-.602v-.725h.602v-.538h-.602v-.721h.602v-.543h-.602v-.72h.602v-.539h-.602v-.721h.602v-.136h7.234v56.062h-.89v1.33l.89 2.851h39.218v6.692h1.119v-6.692h8.542l5.856-2.851v-1.33h-.633v-52.308h7.079v4.247h5.606v3.998h-1.55v6.758h1.55v2.312h-1.55v6.761h1.55v3.757h.41v3.991h3.356v3.243h7.557v-3.243h1.958v3.243h7.555v-3.243h1.962v3.243h7.552v-3.243h1.962v3.243h7.553v-3.243h1.96v3.243h7.557v-3.243h7.273v-3.991h.061l18.094-3.974v-.825h-1.306v-35.571h3.73v.899h-2.112v1.441h2.112v1.022h-2.112v1.441h2.112v1.62h-2.112v1.439h2.112v1.628h1.285v3.344h1.679v-3.344h3.754l.027 1.108h-1.579v.721h1.597l.057 2.344h-1.653v.721h1.671l.061 2.34h-1.731v.721h1.747l.072 2.944h-1.819v.722h1.837l.088 3.518v1.201h18.07v6.132h1.679v-6.132h4.427v9.891h1.679v-9.891h9.216l7.463-1.201 9.331-3.483v-.034h1.054v-.722h-1.054v-2.944h1.054v-.721h-1.054v-2.34h1.054v-.721h-1.054v-2.344h1.054v-.721h-1.054v-2.344h1.054v-.721h-1.054v-2.345h1.054v-.72h-1.054v-1.74h1.054v-.721h-1.054v-1.744h1.054v-.72h-1.054v-1.743h1.054v-.721h-1.054v-1.144h1.054v-.72h-1.054v-.183h3.293v1.298h2.797v3.964h3.643v49.344h-1.384v.844l9.778 4.085h38.062l16.355-4.085v-.844h-1.244v-2.038h.828v-12.165h-.828v-1.713h.828v-12.165h-.828v-1.713h.828v-11.543h3.919v2.085h2.532v4.003h-1.38v.844l1.38 1.663h2.624v1.747h1.554v1.619h1.427v6.691h.558v-6.691h3.359v-1.619h9.052v-1.747h2.176v4.103h.561v-4.103h30.719v6.915h.839v-6.915h8.699l9.98-1.663v-.844h-1.024v-11.392h2.214v5.495h.558v-5.495h2.802v-2.11h1.017v.174h.686v1.922h-.686v.543h.686v1.921h-.686v.539h.686v1.925h-.686v.539h.686v1.922h-.686v.542h.686v1.922h-.686v.542h.686v1.922h-.686v.539h.686v1.922h-.686v.542h.686v1.922h-.686v.542h.686v1.922h-.686v.542h.686v1.922h-.686v.538h.686v1.922h-.686v.543l.686 3.704h32.465l6.188-3.704v-.543h-.594v-1.922h.594v-.538h-.594v-1.922h.594v-.542h-.594v-1.922h.594v-.542h-.594v-1.922h.594v-.542h-.594v-1.922h.594v-.539h-.594v-1.922h.594v-.542h-.594v-1.922h.594v-.542h-.594v-1.922h.594v-.539h-.594v-1.925h.594v-.539h-.594v-1.921h.594v-.543h-.594v-1.53h1.328v3.064h2.424v3.123h.656v-3.123h1.865v-3.064h1.678v-1.62h3.266v-.453h-1.027v-1.422h2.801v3.076h.559v-3.076h1.789v.29h1.457v3.012h-1.457v6.06h1.457v3.014h-1.458v6.056h1.458v3.933h3.266v1.367h4.703v4.219h14.779v4.979h1.346v-4.979h6.717v-4.219h6.381v-.538h3.023l8.48-3.259v-1.503h1.098v-6.056h-1.097v-3.014h.908v-6.06h-.908v-3.012h.908v-3.215h8.113l.123 2.596h-3.844l1.314 5.3h2.291v.807h9.404v-.807h1.975v.807h9.404v-.807h1.975v.807h4.703v6.436h1.176v-6.436h3.529v-.807h3.539l7.316-1.367 9.613-3.447.939-2.516h-1.225v-24.393h-1124.364v39.967l16.171 2.646zm944.105 19.414h31.203v-.988h-31.203v.988zm1.132 1.999h2.797v4.332h1.025v-4.332h11.984v-1.643h-15.807v1.643zm-772.903-8.647h5.973v-3.002h-5.973v3.002zm-7.646 0h5.968v-3.002h-5.968v3.002zm-7.652 0h5.968v-3.002h-5.968v3.002zm-7.652 0h5.973v-3.002h-5.973v3.002zm-7.646 0h2.268v8.787h1.492v-8.787h2.213v-3.002h-5.973v3.002zm-7.647 0h5.968v-3.002h-5.968v3.002z"/><path fill="#fff" d="M1467.318 501.009l-43.087 119.478h43.087zM1477.17 460.721v159.766h49.242zM1390.992 630.342c7.387 19.708 33.239 33.256 33.239 33.256h102.181c13.541-3.695 32.009-33.256 32.009-33.256h-167.429z"/><path fill="#567489" d="M710.87 453.896l-21.251 58.926h21.251zM715.727 434.026v78.796h24.287zM673.226 517.682c3.643 9.72 16.394 16.402 16.394 16.402h50.395c6.679-1.823 15.787-16.402 15.787-16.402h-82.576z"/><path fill="#1E3E59" d="M678.566 534.084l-9.328 6.231h92.619l-18.373-8.07z"/><path fill="#567489" d="M981.897 410.133l-7.522 20.858h7.522zM983.616 403.1v27.891h8.598zM968.572 432.711c1.291 3.441 5.803 5.806 5.803 5.806h17.839c2.364-.646 5.588-5.806 5.588-5.806h-29.23zM1057.459 423.836l-7.522 20.858h7.522zM1059.178 416.803v27.891h8.597zM1044.134 446.415c1.29 3.441 5.803 5.806 5.803 5.806h17.839c2.363-.646 5.588-5.806 5.588-5.806h-29.23z"/><path fill="#1E3E59" d="M1046.024 452.22l-3.3 2.206h32.782l-6.503-2.857zM1408.809 665.63l-17.817 11.901h176.904l-35.092-15.415zM970.525 438.483l-3.3 2.206h32.782l-6.503-2.857z"/></svg>