<!DOCTYPE svg PUBLIC "-//W3C//DTD SVG 1.1//EN" "http://www.w3.org/Graphics/SVG/1.1/DTD/svg11.dtd" [
	<!ENTITY ns_flows "http://ns.adobe.com/Flows/1.0/">
]><svg xmlns="http://www.w3.org/2000/svg" width="263" height="1439" viewBox="0 0 263 1439"><path fill-rule="evenodd" clip-rule="evenodd" d="M105.975 113.248c-.989.801-1.906 1.754-2.896 2.686-1.971 1.857-3.694 3.786-5.68 6.298-.646.815-1.26 1.726-1.882 2.646-.198.295-.459.621-.526.844l.029.584c-.138.496-.842 1.213-1.219 1.629-.294.326-.481.74-.707.982-.322.346-.768.52-1.164.762-.326.2-.867.318-1.189.53-.511.336-.786.948-1.363 1.194-.972.416-2.033-.275-2.645-1-.733-.87-1.474-1.736-2.165-2.643-.493-.645-1.063-1.256-1.41-2-.302-.648-.355-1.391-.81-1.966-.632-.798-1.439-1.439-2.095-2.22-1.886-2.252-3.329-4.641-4.624-7.267-.496-1.009-1.162-2.425-.917-3.579.558-2.613 3.277-.529 4.222.474l.458.573c.335.34.808.654 1.215 1.031.29.267.5.693.769.889.263.189.82.195 1.135.336l.595.4c.485.188.612-.129 1.101.381l.017.154c.09.084.529.416.734.579.292.234.697.499 1.059.698.1.055.266.207.259.204l.506-.02c.15.021.353.058.481.101.443.143.998.65 1.445.652.133 0 .455.019.611.203.216.254-.06.369.029.583l.249.128c.172.152.187.477.466.648.166.102.483.116.713.074l.223-.104c.623-.134 1.034-.284 1.568-.653.227-.157.523-.332.648-.467.267-.283.478-.766.724-1.18 1.528-2.58 3.002-5.307 4.435-7.912 1.76-3.199 3.782-6.506 6.284-9.186.754-.809 1.809-1.257 2.581-2.022.399-.397.685-.894 1.099-1.302 1.06-1.049 2.207-2.347 2.922-3.662.275-.508.453-.984.912-1.364 1.146-.948 2.805-.681 4.059-.126l1.079.293c2.23 1.027 2.973 3.536 3.388 5.748.142.757.25 1.52.375 2.279.079.469.426 1.984.426 1.984s.057.078.464.332c.33.207.71 3.904.864 4.533.373 1.521.532 3.021.698 4.582.223 2.117-.065 4.303-.332 6.396.317-.213.907.134 1.235-.145.743-.633.808-2.145 1.177-2.993.139-.319.412-.604.483-.878.081-.314-.11-.65-.117-1.004-.041-2.199 1.55-4.5 2.697-6.275.5-.773 1.279-1.573 1.649-2.41.222-.502.085-1.171.094-1.705.027-1.717.092-3.391-.152-5.1-.188-1.312-.512-2.599-.743-3.902-.227-1.281-.256-2.539-.311-3.834-.027-.652-.634-1.461-.99-2.115-2.534-4.645-3.096-10.294-4.069-15.41-.176-.934-.125-2.563-.706-3.36-.636-.873-1.302-1.6-1.713-2.617-.502-1.237-.27-2.527-.598-3.765-.078-.296-.165-.6-.194-.995-.016-.217.053-.381-.02-.506l-.431-.341-.233-.325c-.294-.218-.844-.297-.866-.301-.188-.035-.411 1.003-.926.705-.313-.182-.117-.554-.065-.892.057-.357-.007-.621.288-.894.324-.3 1.787-.1 2.163.1.153.081.973.723.973.723s-.355-.535-.458-.666c-.328-.417-.591-.748-1.244-1.263l-.732-.58-.333.156c-.197.074-.686.032-.955-.123-.096-.056-.421-.34-.405-.461.042-.348.596-.442.94-.658.215-.134.437-.374.573-.458.149-.092.245-.098.411-.165.418-.169.717-.53 1.181-.607.531-.016.99.376 1.431.617.416.227.892.37 1.262.672.703.574 1.712 2.266 1.712 2.266s.009-.924.036-1.374c.01-.17.112-.282.067-.438-.035-.118-.217-.292-.33-.47-.085-.135-.25-.479-.25-.479s-.213.048-.43.011c-.211-.036-.674-.242-.92-.518-.569-.639.535-.658.896-.692.443-.042.806-.134 1.099.028.425.235.974.957 1.218 1.383.183.318.158.777.222 1.227.29 2.035.96 4.085.875 6.158-.035.853-.106 1.713.056 2.497.077.365.253.742.367 1.131.579 1.982 1.094 3.982 1.623 5.979.497 1.871.924 3.815 1.797 5.556.596 1.185 1.616 4.263 1.616 4.263l-.226-1.062c-.247-1.245-.87-2.375-1.164-3.605-.327-1.375-.178-2.793-.099-4.189.229-3.939.803-7.812.897-11.764.017-.691.169-1.873-.072-2.296-.63-1.11-1.133-1.946-1.171-3.311-.036-1.355.704-3.258.172-4.558-.021-.052-.388-.518-.415-.538-.32-.244-.801-.097-1.068-.423-.256.512-.333.734-.922.812-.426.057-.743-.015-.414-.538.216-.344.698-.997.998-1.173.335-.197 1.498.021 1.498.021s-1.153-.913-1.445-1.24c-.144-.161-.234-.324-.234-.324.057.284-1.425.304-1.578.223-.185-.099-.463-.336-.536-.563-.076-.241.138-.173.138-.173s-.167-.113-.105-.222c.137-.244.734-.432 1.146-.565.35-.113.792-.41 1.164-.41.151 0 .611.203.611.203l.584-.029c.486-.046 1.312-.227 1.76-.01.156.076.412.375.698.623.367.318.829.602 1 .861.123.186.12.508.176.842.126.732.293 1.382.577 2.064.27.645.231 1.027.261 1.749.06 1.498.063 3.06.334 4.538.528 2.877.609 5.813 1.162 8.687.31 1.606.741 3.188 1.241 4.746.839 2.616 1.202 4.929 1.249 7.702.024 1.465-.111 3.246.373 4.609.45 1.27.811 2.553 1.002 3.887.042.293.269 2.303.269 2.303s.949.674 1.25.988c.717.747.944 1.848 1.216 2.715.084.269.175.466.244.752-.194-.797-.156-2.434-.026-3.242.108-.666.429-1.367 1.151-1.543.562-.137 1.2.441 1.697-.199.08-.101.074-.266.197-.336.211-.121.746.031.746.031s.356-.459.642-.545c.436-.131 1.176.371 1.208-.375.011-.274-.099-.439.218-.809.328-.38.562-.335 1.081-.126l.422.263c.324.144.688.243 1.025.377.255.102.566.316.85.266.33-.06.442-.416.607-.502.319-.162.96-.199 1.312-.152l.85.252c1.785.271 3.404.045 4.928 1.246 2.337 1.841 3.463 5.332 3.288 8.236-.141 2.336-1.61 4.316-3.678 5.341-1.275.632-2.966 1.383-4.41 1.4-.579.007-1.081-.233-1.603-.448-.837-.345-2.266-.371-3.146.076-.435.221-.609.646-.869 1.025-.351.518-.23.714.103 1.333.295.55.026.585.291 1.126.133.27.384.457.504.738.696 1.629.493 3.993.125 5.669-.341 1.554-.432 3.051-1.098 4.521-1.209 2.668-3.224 5.072-5.138 7.266-1.428 1.635-1.876 3.117-3.319 4.74-1.911 2.148-4.803 3.006-7.262 4.335-.832.45-1.647.93-2.462 1.409l-1.191.705s.029.71-1.479 1.635c-.718.438-1.693.532-2.497.757-1.537.431-2.737 1.112-4.083 1.937-1.599.979-3.538 1.198-5.344 1.545-4.714.904-9.124 2.848-13.759 4.033-1.241.318-2.563.453-3.736.99-.541.246-2.239.398-2.776-.064-.585-.504-.917-.63-.917-.63s-2.197.017-3.265.167c-.974.137-1.957.236-2.941.23-.65-.004-1.538-.186-2.074.286-.259.228-.36.72-.355.981.048 2.535-1.418 5.81-3.27 7.546-3.025 2.833-6.508 5.079-9.7 7.7-.368.303-.677.662-.919 1.072-.287.484-.212.884-.284 1.421-.052.408-.085.931-.577 1.354-.375.321-.795.556-.904.712l.097.293s-2.287 1.258-2.859 1.771c-.251.225-.326.533-.657.742l-.334.156-.453.483c-.57.421-1.241.681-1.904.915-.633.223-1.324.204-1.933.43-.844.312-1.7.715-2.607.387-.843-.304-1.023-1.158-.935-1.984.156-1.462.193-2.947-.166-4.383-.338-1.357-.408-2.789.854-3.738.318-.239.531-.463.795-.562.326-.124.957-.018 1.52-.061.789-.06 1.445-.188 2.043.426.163.166.167.354.32.395.152.039.714-.386 1.104-.6.144-.078.966-.541 1.07-.555.193-.024.645.159.645.159s.374-.298.495-.449c.145-.178.212-.4.367-.552.243-.236.689-.273.958-.502.266-.227.445-.648.605-.854 1.647-2.105 3.227-4.23 4.269-6.803.444-1.096.771-2.255 1.405-3.264.512-.814 1.854-2.199 1.854-2.199s.254-.576.355-.979c.442-1.757.568-3.638 1.627-5.159 1.17-1.684 2.524-2.686 4.427-3.418 2.048-.789 4.196-1.285 6.237-2.092.418-.166 2.054-.884 2.054-.884l.119-.327c.351-.961 1.991-1.438 2.843-1.745 1.833-.663 3.517-1.657 5.189-2.644 1.008-.594 2.122-.996 3.097-1.646.595-.397 1.154-.96 1.536-1.565.495-.781.316-1.189.154-2.033-.435-2.264-.651-4.328-.581-6.645.03-.994.245-1.995.496-2.955.1-.355.005-.713-.008-1.131zm16.348-56.998l-.706-.348c-.322-.212-.792-.88-1.11-.458.438.38 1.015.526 1.345.782.55.429.788 1.156 1.423 1.477-.391-.31-.471-1.059-.952-1.453zm-35.874 60.335c.141.462.462.232.706.348l.19.291c.107.069.379.034.515.058.2.032.349.17.516.057-.51-.443-1.334-.718-1.927-.754z"/><path d="M105.486 85.093c-.239-.1-.488-.096-.701.01-.456.229-1.081.541-9.735 49.067-5.939 33.307-13.295 76.145-18.42 106.215-12.903 75.71-26.05 154.854-26.05 156.822 0 2.822 1.14 10.414 1.703 13.988h1.052c-.547-3.479-1.716-11.23-1.716-13.988.034-2.221 53.672-311.014 53.672-311.014 2.064 1.871 8.848 20.156 14.399 37.066l.986-.324c-2.002-6.095-12.14-36.57-15.19-37.842z"/><path fill-rule="evenodd" clip-rule="evenodd" fill="#193851" d="M159.683 0h-159.683v411.195h48.704c.339-4.533 1.185-11.076-.165-14.845-1.323-3.694-5.797-4.89-7.029-9.181-1.568-5.467 1.32-8.405-4.319-11.672-2.074-1.201-4.16-2.303-6.531-2.531-2.419-.232-4.63.703-6.846-.823l-.286-1.255c.008.035-1.036-.334-1.141-.406-.361-.248-.546-.582-.821-.902-.55-.645-1.464-.797-1.588-1.82-.064-.53-.117-.975-.235-1.502-.105-.466.003-.934-.075-1.4l-.154-.033c-.108-.254-.341-.262-.52-.431l-.353-.468c-.446-.475-.559-.554-.552-1.225.008-.924.108-1.938-.118-2.834-.157-.623-.345-1.275-.46-1.902-.081-.442-.056-.977-.21-1.397-.213-.587-1.054-1.11-.499-1.821.307-.391.732-.193.545-.831-.086-.294-.385-.612-.291-.925.393.148.696.666.983.949.282.276.577.563.868.835.247.229.738.503.863.817.148.373.006 1.066.007 1.473.004.913-.522 2.171-.102 3.051.146.305.391.633.564.938.164.288.547.932.84 1.072.02.318.558.582.774.781.337.311.766.787 1.292.674.464-.101.779-.707 1.056-1.037.263-.312.585-.537.864-.831.339-.358.216-.632.34-1.037.17-.556.584-.083.979-.292.254-.135.337-.613.544-.812.239-.228.584-.45.853-.649.727-.539 1.528-.406 2.367-.51.057-.624.185-1.164.206-1.803.018-.531.219-.92.38-1.378.188-.536-.184-2.78.906-2.474-.013.438.433.979.763 1.246l.289.166c.096.096.068.254.194.33.17.102.708.025.897 0 .038-.311.139-.457.204-.729.128-.535.137-1.287.106-1.839-.037-.657-.069-1.312-.238-1.947-.184-.687-.561-.952-.984-1.491-.408-.52-.743-1.061-1.195-1.555-.423-.462-.933-.854-1.337-1.332-.455-.538-.258-1.368-.263-2.025-.003-.33-.073-.706.007-1.029.08-.322.339-.542.452-.848.209-.564.284-1.202.277-1.796-.006-.642.135-1.37-.231-1.933-.347-.533-.73-.981-.859-1.633-.151-.764-.016-1.66-.017-2.439 0-.949.082-1.951-.113-2.879-.199-.947-.403-1.893-.63-2.834-.836-3.461-2.862-5.898-3.124-9.684-.257-3.732-.088-7.289-.516-11.031-.434-3.799.284-7.7-.418-11.466-.539-2.888-3.043-5.071-3.337-7.96-.077-.758-.012-1.529.076-2.282.097-.823-.073-1.405-.456-2.146-.129-.25-.278-.314-.461-.514-.229-.251-.154-.359-.189-.688-.108-.984.009-2.088-.24-3.037-.067-.254-.01-.523-.122-.771-.104-.229-.342-.441-.477-.656-.234-.375-.351-.825-.597-1.18-.287-.414-.588-.605-.641-1.123-.055-.555-.003-1.138-.002-1.695l-.001-1.568c-.001-.512-.112-1.107-.082-1.577.796-.155 1.498 2.433 1.498 2.954 0 .309-.074.701.094.946.119.175.459.351.644.462.413.248.972.607 1.413.738.154.655.977.756 1.519.602l.401-.213.471-.061c.823-.229 1.125-.746 1.622-1.391 1.735-2.252 3.667-4.416 4.784-7.066 1.939-4.602 2.686-9.523 5.083-13.969 2.045-3.791 5.575-7.097 5.636-11.609.047-3.537-.828-7.145-1.613-10.562-.511-2.226-.706-4.536-.513-6.812.091-1.078.438-2.105.568-3.155.13-1.051-.043-2.041.332-3.068.383-1.051.19-2.291.202-3.44.008-.763-.059-1.007-.423-1.661-.184-.33-.444-.637-.503-1.058-.139-.985-.041-2.05-.424-3.015-.376-.945-1.074-1.663-1.233-2.74-.162-1.095.003-2.359.005-3.471.001-1.007-.261-2.455.009-3.426.222-.799 1.141-1.549 1.508-2.301.233-.477.271-.89.438-1.388.16-.478.569-.808.78-1.227.48-.954.065-2.038.261-3.054 2.345.863.655 3.24.532 4.932-.268 3.665-.128 7.35-.184 11.027-.018 1.131-.066 1.441.806 2.146.705.57 1.019 1.186 1.294 2.033.332 1.021.492 2.41 1.394 3.111 1.256.978 2.229.318 2.709-1.011 1.323-3.661 1.043-8.167 1.616-12.087l1.006-.219c.672-4.169 1.478-8.238 1.918-12.359.253-2.372.99-8.391.99-8.391s4.195 1.941 5.593.893c1.399-1.049-.564-6.154.091-8.836.445-1.82 1.625-2.335 2.425-3.838.862-1.619.122-2.932.71-4.551.921-2.533 3.146-2.949 3.533-5.75.311-2.248.008-4.283 1.599-6.045 1.068-1.184 2.192-1.723 3.197-3.154 2.274-3.238 5.245-6.611 6.291-10.576.904-3.43.432-7.418.431-11.015-.001-3.407.005-6.815.003-10.224-.001-3.162-1.228-6.561-.602-9.592.614-2.977 2.091-5.988 2.445-9.074.203-1.766-.476-3.984-.043-5.701.481-1.912 1.251-1.65 2.466-2.971-.081.327-.056.65.072.968 1.934-.599 2.373-2.517 3.788-3.731 1.093-.938 2.47-1.402 3.6-2.476 2.595-2.466 3.539-3.289 7.12-3.305 5.787-.026 11.716-.769 15.283-6.327 1.57-2.448 2.1-7.989 2.1-7.989s5.293-3.86 7.307-5.692c1.784-1.624 3.776-2.944 5.727-4.843.541-.526 1.072-1.062 1.546-1.65.624-.771 1.072-1.648 1.199-2.641.067-.525.089-1.06.128-1.587.042-.569-.057-1.164 0-1.724.036-.349 1.12-.976 1.224-1.269.092-.261-.491-.598-.525-.875-.868-.123-2.195.35-3.075.35-.396 0-.839.059-1.212-.063-.341-.112-.562-.309-.917-.374-.404-.074-.619-.264-1.045-.261-.347.001-.825-.084-1.154.016-.438.133-.513.592-.955.577-.329-.011-.659-.156-1.04-.156-1.846 0-3.671-.084-5.518-.129-4.318-.106-9.788 1.252-13.968.046-1.79-.517-2.234-1.167-4.312-1.289-2.476-.146-4.931.2-7.413-.131-.223-.573-.203-1.16 0-1.734 2.699-.41 5.562.652 8.246-.059 3.418-.905 5.485-2.66 9.349-2.622 4.122.041 8.239-.02 12.353.023 4.01.041 8.029-.705 11.886-1.268 4.084-.596 8.444-.063 12.542-.768.809-.14 1.225-5.203 1.997-6.127 1.485-1.777 3.66-2.251 4.833-4.484 1.913-3.643-.647-9.277 1.456-12.948.669-1.167 1.201-1.149 1.533-2.574.255-1.097-.032-3.531-.032-3.531s1.706-2.626 3.053-4.49c.598-.826 2.168-3.189 3.353-5.439z"/><path fill="#193851" d="M48.704 411.195l3.827 25.447-4.895 14.999v18l4.895 22.498-4.895 6v14.999l2.447 26.999-9.945 13.499v26.339l6.196 1.796-6.196 30.362v15l6.196 10.499-6.196 14.999v67.049l10.442 19.947-10.442 10.834v38.702l6.196 16.46 6.197 20.999v8.999l17.605 13.5v44.998h9.706l5.786 13.499-5.786 11.32 32.086 30.678v17.999l8.748 10.5v19.498l-8.748 9 8.748 9 8.731 26.998-4.189 19.499v10.499l4.189 21h15.725v30.904l3.222 314.847h-148.354v-1041.987z"/></svg>