<!DOCTYPE svg PUBLIC "-//W3C//DTD SVG 1.1//EN" "http://www.w3.org/Graphics/SVG/1.1/DTD/svg11.dtd" [
	<!ENTITY ns_flows "http://ns.adobe.com/Flows/1.0/">
]><svg xmlns="http://www.w3.org/2000/svg" width="1759" height="243" viewBox="-20.492 -12.476 1759 243" enable-background="new -20.492 -12.476 1759 243"><path opacity=".4" fill="#fff" d="M1659.446 89.514c-7.149 0-13.966 1.41-20.232 3.925-12.812-21.81-37.21-36.594-65.301-36.685-14.421-.057-27.887 3.855-39.346 10.568-13.117-14.912-32.229-24.361-53.591-24.415-35.326-.124-64.714 25.285-70.794 58.913-2.577-.346-5.18-.581-7.801-.581-33.939-.09-61.885 25.626-65.267 58.676l372.842 1.268c1.943-5.538 3.08-11.492 3.098-17.72.09-29.682-23.908-53.823-53.608-53.949z"/><path opacity=".2" fill="#fff" d="M467.674 152.19c-1.067 0-2.113.083-3.151.146-4.073-20.326-21.956-35.672-43.457-35.721-19.106-.082-35.397 11.945-41.749 28.855-6.069-2.164-12.576-3.401-19.396-3.434-32.503-.1-58.906 26.139-59.036 58.592l.085 1.529 223.396.766c-3.27-28.466-27.364-50.614-56.692-50.733z"/><path opacity=".1" fill="#fff" d="M289.866 41.912c-6.43 0-12.56 1.268-18.195 3.529-11.521-19.613-33.462-32.908-58.724-32.99-12.968-.051-25.077 3.467-35.383 9.504-11.795-13.41-28.982-21.906-48.192-21.955-31.768-.111-58.196 22.738-63.664 52.979-2.317-.311-4.657-.521-7.015-.521-30.521-.083-55.651 23.043-58.693 52.765l335.289 1.139c1.748-4.979 2.77-10.334 2.786-15.935.079-26.693-21.501-48.402-48.209-48.515z"/></svg>