<svg xmlns="http://www.w3.org/2000/svg" width="1058" height="376" viewBox="0 -0.001 1058 376" enable-background="new 0 -0.001 1058 376"><path opacity=".3" fill="#fff" d="M1001.479 35.575c-1.066 0-2.113.083-3.15.146-4.074-20.326-21.957-35.672-43.457-35.721-19.107-.082-35.398 11.945-41.75 28.855-6.068-2.164-12.576-3.401-19.395-3.434-32.504-.1-58.906 26.139-59.037 58.592l.086 1.529 223.395.766c-3.27-28.466-27.363-50.615-56.692-50.733z"/><path opacity=".4" fill="#fff" d="M294.735 286.291c-1.887 0-3.734.148-5.568.258-7.197-35.92-38.799-63.037-76.793-63.123-33.764-.144-62.553 21.109-73.775 50.992-10.727-3.826-22.225-6.012-34.275-6.068-57.437-.176-104.095 46.191-104.324 103.537l.15 2.703 394.764 1.353c-5.777-50.304-48.353-89.443-100.179-89.652z"/></svg>